HIERARCHY
ROOT Hips
{
	OFFSET 0.000000 0.000000 0.000000
	CHANNELS 6 Xposition Yposition Zposition Zrotation Yrotation Xrotation 
	JOINT LHipJoint
	{
		OFFSET 0.000000 0.000000 0.000000
		CHANNELS 3 Zrotation Yrotation Xrotation
		JOINT LeftUpLeg
		{
			OFFSET 1.363060 -1.794630 0.839290
			CHANNELS 3 Zrotation Yrotation Xrotation
			JOINT LeftLeg
			{
				OFFSET 2.448110 -6.726130 0.000000
				CHANNELS 3 Zrotation Yrotation Xrotation
				JOINT LeftFoot
				{
					OFFSET 2.562200 -7.039590 0.000000
					CHANNELS 3 Zrotation Yrotation Xrotation
					JOINT LeftToeBase
					{
						OFFSET 0.157640 -0.433110 2.322550
						CHANNELS 3 Zrotation Yrotation Xrotation
						End Site
						{
							OFFSET 0.000000 0.000000 0.000000
						}
					}
				}
			}
		}
	}
	JOINT RHipJoint
	{
		OFFSET 0.000000 0.000000 0.000000
		CHANNELS 3 Zrotation Yrotation Xrotation
		JOINT RightUpLeg
		{
			OFFSET -1.305520 -1.794630 0.839290
			CHANNELS 3 Zrotation Yrotation Xrotation
			JOINT RightLeg
			{
				OFFSET -2.542530 -6.985550 0.000000
				CHANNELS 3 Zrotation Yrotation Xrotation
				JOINT RightFoot
				{
					OFFSET -2.568260 -7.056230 0.000000
					CHANNELS 3 Zrotation Yrotation Xrotation
					JOINT RightToeBase
					{
						OFFSET -0.164730 -0.452590 2.363150
						CHANNELS 3 Zrotation Yrotation Xrotation
						End Site
						{
							OFFSET 0.000000 0.000000 0.000000
						}
					}
				}
			}
		}
	}
}
MOTION
Frames: 31
Frame Time: 0.008333
4.646637 17.356936 1.400743 178.636990 -59.843340 -159.034336 -10.971611 2.131025 -4.532832 -16.614734 29.967180 -21.401273 -3.739010 -1.111311 -3.043262 2.022900 14.602066 0.474642 2.290800 0.000000 -35.292200 9.559706 0.203741 4.051949 -4.744170 10.991062 -24.576004 2.408646 1.214550 -4.476732 1.331200 6.905852 15.016111 1.878200 -0.000000 -69.227100
4.648709 17.355160 1.403740 178.521163 -59.844698 -158.808099 -10.965550 2.133763 -4.518581 -16.770621 29.870127 -21.565856 -3.751089 -1.114410 -3.023537 2.025804 14.588196 0.431003 2.281400 0.000001 -35.225600 9.554454 0.219500 4.057214 -4.833169 10.958130 -24.727141 2.403232 1.220647 -4.500948 1.331049 6.886694 15.032004 1.872001 0.000000 -69.260300
4.651615 17.353473 1.406344 178.400961 -59.857990 -158.594180 -10.961970 2.135443 -4.502988 -16.908457 29.763430 -21.710115 -3.760082 -1.116671 -2.998153 2.030259 14.585859 0.387970 2.273800 0.000000 -35.155000 9.548445 0.234509 4.056810 -4.910476 10.909054 -24.853228 2.399177 1.226599 -4.529087 1.331640 6.876687 15.046996 1.869200 0.000000 -69.293001
4.655507 17.351862 1.408628 178.274936 -59.881261 -158.393600 -10.960928 2.135954 -4.487180 -17.027292 29.648990 -21.831036 -3.765939 -1.118138 -2.970615 2.036053 14.594170 0.346796 2.268200 0.000000 -35.081200 9.541784 0.249392 4.049999 -4.976479 10.845305 -24.954148 2.396330 1.232123 -4.558841 1.333000 6.876496 15.060191 1.870000 0.000000 -69.326000
4.660298 17.350325 1.410690 178.145782 -59.914423 -158.207098 -10.962719 2.135620 -4.471802 -17.128947 29.532966 -21.935314 -3.769846 -1.118243 -2.936769 2.042041 14.604537 0.305596 2.262600 -0.000000 -35.007300 9.533826 0.263852 4.038206 -5.032282 10.772398 -25.030761 2.394622 1.237734 -4.592721 1.334546 6.878713 15.073402 1.871700 -0.000000 -69.358700
4.665952 17.348848 1.412613 178.014831 -59.954136 -158.034615 -10.967110 2.134451 -4.458084 -17.213456 29.415689 -22.018031 -3.771484 -1.117457 -2.903479 2.048450 14.619703 0.267573 2.258199 -0.000000 -34.933700 9.525063 0.278550 4.020771 -5.079474 10.692521 -25.084900 2.393636 1.242874 -4.626615 1.336283 6.884805 15.085260 1.874800 0.000000 -69.392200
4.672378 17.347441 1.414425 177.883842 -59.999832 -157.875005 -10.973872 2.132640 -4.446595 -17.283556 29.301539 -22.085255 -3.771850 -1.115552 -2.869005 2.054431 14.633574 0.232242 2.253800 0.000000 -34.862100 9.515341 0.293454 3.998934 -5.119592 10.609661 -25.120345 2.393151 1.247734 -4.660397 1.337830 6.890173 15.096139 1.877400 -0.000000 -69.425600
4.679476 17.346093 1.416102 177.754019 -60.049911 -157.726530 -10.982555 2.130219 -4.437812 -17.341172 29.191029 -22.138552 -3.771192 -1.112759 -2.836187 2.059836 14.645482 0.201254 2.249800 0.000000 -34.793500 9.504859 0.308777 3.973398 -5.154768 10.528065 -25.140359 2.392693 1.252190 -4.692789 1.338813 6.891392 15.105924 1.878300 -0.000000 -69.458100
4.687028 17.344852 1.417612 177.626661 -60.104647 -157.586523 -10.992765 2.127482 -4.431562 -17.390229 29.087311 -22.185713 -3.770581 -1.109003 -2.802895 2.063849 14.649549 0.174188 2.245101 0.000000 -34.729300 9.493492 0.324184 3.946100 -5.186633 10.451222 -25.150591 2.392071 1.256516 -4.724137 1.338891 6.883968 15.115342 1.875700 0.000000 -69.488600
4.694848 17.343684 1.418938 177.502859 -60.163758 -157.452403 -11.003997 2.124560 -4.427426 -17.433747 28.990750 -22.231030 -3.770481 -1.104568 -2.770399 2.066227 14.644145 0.151815 2.239899 0.000000 -34.670300 9.481426 0.339533 3.918234 -5.216587 10.380807 -25.155557 2.391053 1.260736 -4.753164 1.337879 6.865851 15.123609 1.868800 0.000000 -69.516099
4.702795 17.342642 1.420034 177.382041 -60.227317 -157.321252 -11.015789 2.121579 -4.425052 -17.473316 28.899269 -22.274496 -3.770829 -1.099858 -2.741777 2.067130 14.630803 0.135882 2.234799 -0.000000 -34.616700 9.469052 0.354974 3.890214 -5.245751 10.317198 -25.158743 2.389355 1.264701 -4.778353 1.335679 6.836408 15.130172 1.857199 -0.000000 -69.539300
4.710737 17.341713 1.420823 177.263400 -60.295852 -157.190462 -11.027720 2.118710 -4.423453 -17.511832 28.812048 -22.320444 -3.771973 -1.095093 -2.717004 2.066421 14.608318 0.126348 2.229800 -0.000000 -34.568899 9.456443 0.370293 3.863263 -5.274887 10.260482 -25.164452 2.386938 1.268546 -4.799248 1.332258 6.794709 15.134463 1.840700 0.000000 -69.557700
4.718385 17.340897 1.421311 177.148543 -60.369367 -157.058089 -11.039774 2.116257 -4.421654 -17.550518 28.727245 -22.369423 -3.773875 -1.090646 -2.697817 2.064273 14.577896 0.123799 2.225200 -0.000000 -34.526800 9.443738 0.385276 3.837789 -5.304227 10.208977 -25.174789 2.383876 1.272299 -4.814751 1.327748 6.741962 15.135886 1.819500 0.000000 -69.570600
4.725700 17.340197 1.421399 177.034388 -60.448351 -156.920765 -11.051576 2.114456 -4.418528 -17.592231 28.644237 -22.425708 -3.776915 -1.086631 -2.682833 2.060576 14.538402 0.127281 2.220800 0.000000 -34.490999 9.430995 0.399681 3.814913 -5.334207 10.161511 -25.193540 2.380232 1.276100 -4.824147 1.322304 6.679040 15.133213 1.794000 0.000000 -69.577800
4.732522 17.339587 1.421084 176.921003 -60.532614 -156.777084 -11.063106 2.113523 -4.413117 -17.637797 28.560955 -22.489625 -3.780993 -1.083268 -2.672209 2.055576 14.491221 0.136215 2.216600 0.000000 -34.460900 9.418280 0.413381 3.794925 -5.364818 10.115982 -25.222569 2.376149 1.280002 -4.826750 1.316117 6.607659 15.125810 1.764700 -0.000000 -69.579101
4.738974 17.339062 1.420403 176.805602 -60.621360 -156.627161 -11.074217 2.113366 -4.405437 -17.686106 28.474681 -22.556569 -3.785431 -1.080765 -2.668286 2.049959 14.441219 0.150877 2.213599 0.000000 -34.436100 9.405919 0.426789 3.776897 -5.396002 10.070641 -25.260375 2.371607 1.283757 -4.821544 1.309457 6.531324 15.112656 1.732900 -0.000000 -69.575800
4.745014 17.338581 1.419312 176.688227 -60.713479 -156.470026 -11.084856 2.114104 -4.395010 -17.738035 28.385133 -22.627990 -3.790337 -1.079142 -2.669420 2.043855 14.388841 0.169877 2.211401 0.000000 -34.416500 9.393915 0.439691 3.761261 -5.428193 10.024734 -25.308062 2.366691 1.287422 -4.808481 1.302486 6.451520 15.093590 1.699299 -0.000000 -69.568400
4.750612 17.338126 1.417861 176.569288 -60.807473 -156.305825 -11.094934 2.115704 -4.381964 -17.793287 28.291630 -22.702424 -3.795486 -1.078453 -2.675326 2.037678 14.336764 0.192358 2.210300 0.000001 -34.401501 9.382367 0.452101 3.747958 -5.461928 9.978658 -25.365169 2.361379 1.290941 -4.787655 1.295332 6.369949 15.068181 1.664400 0.000000 -69.558100
4.756072 17.337663 1.416066 176.445835 -60.901042 -156.135484 -11.104099 2.117889 -4.367271 -17.851145 28.194533 -22.777416 -3.800650 -1.078554 -2.685335 2.031749 14.287159 0.217332 2.210300 0.000000 -34.390400 9.371542 0.464406 3.736379 -5.497672 9.933183 -25.430293 2.355499 1.294060 -4.759093 1.288091 6.288392 15.036523 1.629200 0.000000 -69.546600
4.761294 17.337167 1.413883 176.320633 -60.992409 -155.959073 -11.112156 2.120508 -4.351175 -17.912470 28.095341 -22.856629 -3.806175 -1.079225 -2.695871 2.026104 14.239481 0.242605 2.210900 0.000000 -34.382899 9.361287 0.476340 3.727464 -5.536880 9.891526 -25.504518 2.348971 1.296955 -4.724440 1.280645 6.205588 14.999402 1.593000 -0.000000 -69.533800
4.766413 17.336629 1.411388 176.194517 -61.079003 -155.778308 -11.118878 2.123289 -4.335108 -17.976486 27.995816 -22.937887 -3.811949 -1.080310 -2.706419 2.021001 14.195581 0.267549 2.212000 0.000000 -34.378000 9.351765 0.488135 3.720800 -5.580164 9.856320 -25.586130 2.341600 1.299448 -4.684715 1.272950 6.121996 14.957906 1.556500 -0.000000 -69.521100
4.771493 17.336000 1.408592 176.070326 -61.158252 -155.594766 -11.123995 2.125852 -4.320119 -18.043194 27.898660 -23.023340 -3.818240 -1.081554 -2.714650 2.016435 14.154917 0.290519 2.213200 0.000000 -34.375900 9.342894 0.499802 3.716838 -5.628450 9.831446 -25.675211 2.333274 1.301640 -4.641967 1.264851 6.036280 14.913141 1.518900 0.000001 -69.509300
4.776782 17.335287 1.405536 175.947949 -61.226978 -155.412160 -11.127183 2.127668 -4.308025 -18.110386 27.805443 -23.107886 -3.824555 -1.082888 -2.722650 2.012788 14.120822 0.312595 2.215300 0.000000 -34.375200 9.335121 0.511930 3.714246 -5.681460 9.817936 -25.769140 2.323834 1.303025 -4.595914 1.256524 5.951520 14.866901 1.481900 -0.000001 -69.499600
4.782095 17.334505 1.402217 175.832849 -61.283793 -155.230843 -11.128352 2.128590 -4.299394 -18.180064 27.720608 -23.199474 -3.831844 -1.083845 -2.725071 2.009534 14.088639 0.331330 2.216800 -0.000001 -34.376200 9.327854 0.524027 3.714781 -5.740145 9.821792 -25.870011 2.313280 1.304175 -4.550410 1.247528 5.862449 14.820798 1.443500 0.000000 -69.490600
4.787642 17.333643 1.398670 175.725474 -61.325982 -155.054552 -11.127334 2.128156 -4.295511 -18.249617 27.644680 -23.291756 -3.839407 -1.084622 -2.726238 2.007174 14.062725 0.348449 2.218800 0.000000 -34.377899 9.321579 0.536756 3.716649 -5.802343 9.840684 -25.975852 2.301824 1.304603 -4.504364 1.238388 5.775107 14.776250 1.406200 -0.000000 -69.484100
4.793234 17.332709 1.394946 175.631731 -61.353157 -154.885881 -11.124144 2.126178 -4.296810 -18.320122 27.581485 -23.390316 -3.847893 -1.084902 -2.723139 2.005174 14.038848 0.362914 2.220300 -0.000001 -34.380700 9.315874 0.549768 3.720866 -5.868105 9.877892 -26.087969 2.289619 1.304662 -4.460397 1.228886 5.686629 14.735315 1.368900 0.000000 -69.478300
4.798818 17.331732 1.390966 175.552174 -61.363640 -154.724501 -11.118848 2.122583 -4.303636 -18.391222 27.532790 -23.495339 -3.857450 -1.084717 -2.716618 2.003393 14.016272 0.374876 2.221400 0.000000 -34.384700 9.310690 0.563095 3.727209 -5.935693 9.932756 -26.206570 2.276942 1.304437 -4.419035 1.219262 5.598873 14.698631 1.332400 -0.000000 -69.473200
4.804314 17.330706 1.386868 175.490918 -61.357490 -154.575412 -11.111530 2.117090 -4.315910 -18.461263 27.497922 -23.603771 -3.867484 -1.084346 -2.710027 2.002189 13.997874 0.385814 2.222800 -0.000000 -34.389500 9.306177 0.577070 3.734497 -6.001959 10.000691 -26.332126 2.264442 1.303706 -4.378572 1.210198 5.518222 14.666725 1.299201 -0.000000 -69.469100
4.809600 17.329671 1.382535 175.447807 -61.334198 -154.436873 -11.102314 2.109803 -4.333219 -18.530734 27.477620 -23.717170 -3.878215 -1.083910 -2.703951 2.001388 13.982528 0.395803 2.224400 -0.000000 -34.395100 9.302253 0.591540 3.742808 -6.065278 10.079707 -26.466097 2.252446 1.302573 -4.338679 1.201983 5.446597 14.639996 1.270000 0.000000 -69.465600
4.814627 17.328633 1.378015 175.423680 -61.294635 -154.311125 -11.091173 2.100639 -4.355277 -18.599491 27.471668 -23.835178 -3.889511 -1.083500 -2.699154 2.000941 13.970089 0.405269 2.226200 0.000000 -34.401800 9.298997 0.606676 3.751554 -6.123413 10.165886 -26.609680 2.241400 1.300924 -4.297540 1.195077 5.388019 14.617618 1.246401 0.000000 -69.462500
4.819176 17.327561 1.373261 175.419056 -61.238711 -154.196402 -11.078329 2.089819 -4.381157 -18.667460 27.478444 -23.957054 -3.901210 -1.083459 -2.697466 2.001029 13.961997 0.414788 2.228700 0.000000 -34.409700 9.296457 0.622277 3.760569 -6.174903 10.255859 -26.764125 2.231634 1.298705 -4.253386 1.189920 5.346112 14.599189 1.229600 -0.000000 -69.460200
